<?xml version="1.0" encoding="UTF-8"?>
<svg id="Layer_1" xmlns="http://www.w3.org/2000/svg" version="1.1" viewBox="0 0 841.89 1190.55">
  <!-- Generator: Adobe Illustrator 29.8.1, SVG Export Plug-In . SVG Version: 2.1.1 Build 2)  -->
  <defs>
    <style>
      .st0 {
        fill: #327462;
      }

      .st0, .st1, .st2 {
        fill-rule: evenodd;
      }

      .st3, .st2 {
        fill: #231f20;
      }

      .st1 {
        fill: #54a275;
      }
    </style>
  </defs>
  <path class="st3" d="M456.97,701.65h-.49v-3.29c0-.64-.1-1.11-.31-1.38-.21-.28-.55-.42-1.04-.42-.55,0-.99.2-1.33.59-.34.39-.51.9-.51,1.54v2.97h-.48v-5.38h.48v1.11c.21-.43.47-.74.79-.95.31-.21.68-.31,1.1-.31.62,0,1.07.17,1.36.52.29.35.44.88.44,1.6v3.41ZM446.19,696.12c.69,0,1.26.26,1.69.78.43.52.65,1.2.65,2.05s-.22,1.54-.65,2.07c-.43.52-1,.79-1.69.79s-1.26-.26-1.69-.78c-.43-.52-.65-1.21-.65-2.06s.22-1.54.65-2.06c.43-.52,1-.78,1.69-.78ZM446.19,696.56c-.55,0-.99.22-1.33.66-.34.44-.51,1.02-.51,1.74s.17,1.3.51,1.73c.34.44.78.66,1.33.66s.99-.22,1.33-.66c.34-.44.51-1.02.51-1.73s-.17-1.29-.51-1.74c-.34-.44-.79-.66-1.33-.66ZM438.97,701.65v-5.38h.49v5.38h-.49ZM438.97,695.08v-1h.49v1h-.49ZM431.94,696.74v-.47h1.02v-2l.49-.34v2.34h1.22v.47h-1.22v3.81c0,.31.05.53.15.63.1.11.3.16.59.16.09,0,.18,0,.26-.02.09-.01.18-.03.27-.05v.45c-.1.03-.2.05-.3.06-.1.01-.21.02-.33.02-.41,0-.7-.09-.88-.29-.17-.19-.26-.51-.26-.96v-3.82h-1.02ZM427.6,700.88c-.29.31-.59.54-.9.69-.31.15-.63.23-.97.23-.53,0-.96-.15-1.29-.45-.32-.3-.48-.7-.48-1.19,0-.38.09-.71.28-.98.19-.27.46-.47.82-.6.2-.08.59-.18,1.19-.3.59-.12,1.04-.28,1.35-.49,0-.02,0-.04,0-.06,0-.02,0-.06,0-.1,0-.34-.12-.6-.37-.79-.24-.19-.58-.28-1.02-.28-.39,0-.73.09-1.03.28-.3.19-.54.46-.72.82l-.35-.27c.22-.42.5-.74.85-.95.35-.21.76-.32,1.23-.32.64,0,1.11.14,1.42.43.31.29.46.73.46,1.33v2.66c0,.35.04.57.11.67.07.1.2.15.4.15h.1v.39c-.07.02-.12.04-.17.05-.04,0-.08.01-.13.01-.24,0-.42-.08-.56-.24-.13-.16-.21-.39-.23-.69ZM427.6,698.29c-.4.19-.89.34-1.46.45-.57.12-.92.21-1.05.27-.23.12-.39.27-.49.45-.1.18-.15.4-.15.68,0,.38.11.67.34.88.23.21.54.32.93.32.55,0,1-.15,1.36-.45.35-.3.52-.69.52-1.16v-1.45ZM417.48,696.74v-.47h1.02v-2l.49-.34v2.34h1.22v.47h-1.22v3.81c0,.31.05.53.15.63.1.11.3.16.59.16.09,0,.17,0,.26-.02.09-.01.18-.03.27-.05v.45c-.1.03-.2.05-.3.06-.1.01-.22.02-.33.02-.41,0-.7-.09-.88-.29-.17-.19-.26-.51-.26-.96v-3.82h-1.02ZM413.98,700.31c-.2.49-.48.86-.83,1.11-.36.25-.78.38-1.27.38-.7,0-1.26-.26-1.69-.78-.43-.52-.65-1.21-.65-2.06s.22-1.54.65-2.06c.43-.52,1-.78,1.69-.78.49,0,.91.13,1.27.38.35.25.63.62.83,1.11l-.44.2c-.19-.42-.42-.74-.69-.95-.28-.21-.6-.31-.97-.31-.55,0-.99.22-1.33.66-.34.44-.51,1.02-.51,1.74s.17,1.3.51,1.73c.34.44.78.66,1.33.66.37,0,.7-.1.97-.31.27-.21.5-.52.69-.94l.44.2ZM405.2,700.24l.38.21c-.21.45-.47.79-.79,1.01-.32.22-.7.33-1.14.33-.76,0-1.35-.24-1.75-.71-.41-.48-.61-1.16-.61-2.06s.19-1.64.58-2.15c.39-.51.93-.77,1.62-.77s1.27.24,1.65.71c.39.47.58,1.14.58,2.01v.24h-3.92v.1c0,.69.16,1.23.47,1.61.32.38.76.57,1.34.57.37,0,.67-.09.92-.26.25-.17.46-.45.66-.84ZM401.81,698.62h3.43c0-.66-.16-1.16-.46-1.53-.3-.36-.71-.54-1.24-.54s-.94.18-1.24.54c-.3.36-.46.87-.48,1.53ZM397.03,698.96c0-.75-.15-1.34-.46-1.77-.31-.42-.73-.64-1.28-.64s-.97.21-1.27.62c-.3.41-.44,1.01-.44,1.78s.15,1.36.44,1.77c.3.41.72.62,1.27.62s.97-.21,1.28-.63c.31-.42.46-1.01.46-1.76ZM393.58,703.59h-.48v-7.32h.48v1.04c.21-.41.46-.71.75-.9.29-.2.64-.29,1.04-.29.68,0,1.21.25,1.59.75.38.5.57,1.2.57,2.09s-.19,1.59-.57,2.09c-.38.5-.91.75-1.59.75-.4,0-.74-.1-1.04-.29-.29-.2-.55-.49-.75-.9v2.98ZM384.73,701.65l1.9-2.85-1.69-2.53h.52l1.48,2.28,1.5-2.28h.52l-1.71,2.54,1.93,2.84h-.52l-1.74-2.6-1.69,2.6h-.51ZM380.79,700.24l.38.21c-.21.45-.47.79-.79,1.01-.32.22-.7.33-1.14.33-.77,0-1.35-.24-1.75-.71-.41-.48-.61-1.16-.61-2.06s.2-1.64.58-2.15c.39-.51.93-.77,1.62-.77s1.27.24,1.65.71c.38.47.58,1.14.58,2.01v.24h-3.92v.1c0,.69.16,1.23.47,1.61.32.38.76.57,1.34.57.37,0,.67-.09.92-.26.25-.17.46-.45.66-.84ZM377.4,698.62h3.43c-.01-.66-.16-1.16-.46-1.53-.3-.36-.71-.54-1.24-.54s-.94.18-1.24.54c-.3.36-.46.87-.48,1.53ZM368.18,701.65v-5.38h.49v1.38h.08c.21-.53.45-.91.71-1.16.26-.25.56-.37.9-.37.08,0,.16,0,.24.02.08.01.16.03.25.06v.57c-.09-.03-.17-.06-.26-.07-.08-.02-.16-.02-.24-.02-.5,0-.91.26-1.21.79-.31.53-.46,1.24-.46,2.13v2.06h-.49ZM359.14,699.68v-3.41h.5v3.29c0,.64.1,1.1.31,1.37.21.28.54.42,1,.42.56,0,1.02-.19,1.36-.58.34-.39.52-.9.52-1.54v-2.96h.48v5.38h-.48v-1.11c-.22.42-.48.74-.79.95-.31.21-.68.32-1.1.32-.61,0-1.06-.17-1.36-.52-.29-.35-.44-.88-.44-1.6ZM352.56,696.12c.69,0,1.26.26,1.69.78.43.52.65,1.2.65,2.05s-.22,1.54-.65,2.07c-.43.52-1,.79-1.69.79s-1.26-.26-1.69-.78c-.43-.52-.65-1.21-.65-2.06s.22-1.54.65-2.06c.43-.52,1-.78,1.69-.78ZM352.56,696.56c-.55,0-.99.22-1.33.66-.34.44-.51,1.02-.51,1.74s.17,1.3.51,1.73c.34.44.78.66,1.33.66s.99-.22,1.33-.66c.34-.44.51-1.02.51-1.73s-.17-1.29-.51-1.74c-.34-.44-.79-.66-1.33-.66ZM342.83,703.71v-.42c.08,0,.15.01.21.02.06,0,.12,0,.19,0,.3,0,.54-.07.7-.21.17-.14.31-.39.42-.74l.19-.62-2.09-5.47h.47l1.84,4.84,1.53-4.84h.47l-1.97,6.15c-.15.49-.35.83-.58,1.02-.23.19-.56.29-.97.29-.11,0-.19,0-.25,0-.06,0-.12,0-.17-.02ZM333.6,696.56c-.54,0-.97.21-1.28.64-.3.42-.46,1.01-.46,1.77s.15,1.34.46,1.76c.3.42.73.63,1.28.63s.97-.21,1.27-.62c.29-.41.44-1,.44-1.77s-.15-1.36-.45-1.78c-.3-.42-.72-.62-1.26-.62ZM335.31,700.61c-.21.41-.46.71-.75.9-.29.19-.63.29-1.03.29-.68,0-1.21-.25-1.6-.75-.39-.5-.58-1.2-.58-2.09s.19-1.59.58-2.09c.39-.5.92-.75,1.6-.75.39,0,.74.1,1.03.29.29.19.54.49.75.9v-1.04h.49v5.35c0,.66-.2,1.18-.6,1.56-.4.37-.96.56-1.67.56-.61,0-1.08-.16-1.43-.47-.34-.32-.52-.76-.54-1.33l.48.06c.03.43.18.75.44.97.26.22.62.33,1.08.33.57,0,1-.14,1.3-.43.3-.28.45-.7.45-1.24v-1.02ZM327.1,701.65h-.49v-3.29c0-.64-.11-1.11-.31-1.38-.21-.28-.55-.42-1.04-.42-.55,0-.99.2-1.33.59-.34.39-.51.9-.51,1.54v2.97h-.48v-5.38h.48v1.11c.21-.43.47-.74.79-.95.31-.21.68-.31,1.09-.31.61,0,1.07.17,1.36.52.29.35.44.88.44,1.6v3.41ZM317.57,701.65v-5.38h.49v5.38h-.49ZM317.57,695.08v-1h.49v1h-.49ZM309.6,701.65v-7.77h.48v5.05l2.54-2.66h.6l-1.65,1.76,1.86,3.62h-.5l-1.7-3.27-1.15,1.19v2.08h-.48ZM305.19,700.31c-.2.49-.48.86-.83,1.11-.36.25-.78.38-1.27.38-.7,0-1.26-.26-1.69-.78-.43-.52-.65-1.21-.65-2.06s.22-1.54.65-2.06c.43-.52,1-.78,1.69-.78.49,0,.91.13,1.27.38.35.25.63.62.83,1.11l-.44.2c-.19-.42-.42-.74-.69-.95-.28-.21-.6-.31-.97-.31-.55,0-.99.22-1.33.66-.34.44-.51,1.02-.51,1.74s.17,1.3.51,1.73c.34.44.78.66,1.33.66.37,0,.7-.1.97-.31.27-.21.5-.52.69-.94l.44.2ZM294.62,696.12c.69,0,1.26.26,1.69.78.44.52.65,1.2.65,2.05s-.22,1.54-.65,2.07c-.43.52-1,.79-1.69.79s-1.26-.26-1.69-.78c-.43-.52-.65-1.21-.65-2.06s.22-1.54.65-2.06c.43-.52,1-.78,1.69-.78ZM294.62,696.56c-.55,0-.99.22-1.32.66-.34.44-.51,1.02-.51,1.74s.17,1.3.51,1.73c.34.44.78.66,1.33.66s.99-.22,1.33-.66c.34-.44.51-1.02.51-1.73s-.17-1.29-.51-1.74c-.34-.44-.79-.66-1.33-.66ZM287.4,701.65v-7.77h.49v7.77h-.49ZM282.56,701.65h-.49v-3.29c0-.64-.11-1.11-.31-1.38-.21-.28-.55-.42-1.04-.42-.55,0-.99.2-1.33.59-.34.39-.51.9-.51,1.54v2.97h-.48v-5.38h.48v1.11c.21-.43.47-.74.79-.95.31-.21.68-.31,1.1-.31.61,0,1.07.17,1.36.52.29.35.44.88.44,1.6v3.41ZM267.93,693.88h.53v5c0,.83.2,1.46.59,1.87.39.41.99.62,1.79.62s1.41-.22,1.79-.66c.39-.44.58-1.11.58-2.02v-4.81h.47v4.77c0,1.07-.24,1.86-.71,2.39-.48.52-1.2.79-2.17.79s-1.68-.24-2.15-.72c-.47-.48-.71-1.22-.71-2.2v-5.02Z"/>
  <path class="st1" d="M458.88,509.71l58.94,42.66-7.25,22.31-.03-.04-6.71,20.52-3.65-26.95c-.68-5.01-1.71-8.74-4.87-12.71l-36.42-45.78ZM495.2,621.49l58.79-42.86,18.97,13.8-.05.02,17.44,12.73-26.76-4.87c-4.98-.9-8.84-1.07-13.6.7l-54.8,20.48ZM612.74,621.52l-22.58-69.16,18.99-13.78v.05s17.5-12.65,17.5-12.65l-12.9,23.94c-2.4,4.45-3.75,8.08-3.54,13.15l2.53,58.44ZM649.1,509.76l-72.75.09-7.24-22.32.05.02-6.62-20.55,18.78,19.67c3.49,3.66,6.52,6.07,11.41,7.43l56.36,15.66ZM553.99,440.61l-22.35,69.24h-23.46l.03-.05-21.59-.04,24.51-11.8c4.56-2.19,7.78-4.33,10.58-8.57l32.28-48.79Z"/>
  <path class="st0" d="M649.1,509.76l-72.75.09-13.8-42.85,13.65,23.76c4.42,7.69,9.8,11.27,18.33,12.31l54.58,6.69Z"/>
  <path class="st0" d="M554.02,440.62l-22.37,69.23-45.02-.1,26.81-5.65c8.68-1.83,13.74-5.84,17.37-13.63l23.22-49.85Z"/>
  <path class="st0" d="M458.9,509.69l58.92,42.68-14.02,42.78,2.92-27.24c.95-8.82-1.31-14.87-7.59-20.73l-40.23-37.49Z"/>
  <path class="st0" d="M495.18,621.47l58.81-42.83,36.35,26.56-25.01-11.2c-8.09-3.62-14.55-3.36-22.06.81l-48.09,26.67Z"/>
  <path class="st0" d="M612.71,621.53l-22.55-69.17,36.49-26.36-18.38,20.32c-5.95,6.57-7.69,12.8-6.05,21.23l10.49,53.98Z"/>
  <path class="st3" d="M513.1,753.09v-10.6h1.87c.35,2.79,1.34,5,2.98,6.62,1.64,1.61,3.7,2.42,6.16,2.42,1.99,0,3.6-.59,4.83-1.76,1.23-1.17,1.85-2.7,1.85-4.58,0-1.56-.44-2.81-1.33-3.78-.88-.97-2.32-1.74-4.3-2.33l-3.67-1.1c-2.76-.85-4.85-2.03-6.25-3.56-1.41-1.52-2.11-3.34-2.11-5.48,0-2.39.81-4.37,2.42-5.95,1.61-1.58,3.64-2.36,6.1-2.36,1.67,0,3.21.41,4.6,1.24,1.39.83,2.48,1.98,3.26,3.44l-.12-4.06h1.87v8.49h-1.75c-.51-2.2-1.47-3.91-2.89-5.13-1.41-1.22-3.13-1.83-5.17-1.83-1.78,0-3.26.55-4.45,1.65-1.18,1.11-1.77,2.47-1.77,4.1s.55,3.11,1.64,4.25c1.09,1.13,2.76,2.02,5,2.67l4.35,1.27c2.21.64,3.88,1.66,5,3.03,1.12,1.38,1.68,3.1,1.68,5.2,0,2.6-.84,4.72-2.52,6.33-1.68,1.62-3.88,2.43-6.62,2.43-1.82,0-3.5-.49-5.04-1.46-1.54-.97-2.83-2.36-3.87-4.16l.12,4.99h-1.87ZM454.15,753v-2.16h3.59v-27.5h-7.23v6.54h-1.99v-8.73h20.71v8.73h-1.95v-6.54h-7.27v27.5h3.63v2.16h-9.49ZM389.42,723.33v12.03h5.56c2.99,0,5.16-.48,6.51-1.44,1.35-.96,2.03-2.48,2.03-4.58s-.68-3.61-2.03-4.57c-1.35-.96-3.52-1.44-6.51-1.44h-5.56ZM383.56,753v-2.16h3.59v-27.5h-3.59v-2.18h12.01c3.32,0,5.86.7,7.61,2.11,1.77,1.4,2.64,3.43,2.64,6.07,0,2.01-.57,3.66-1.73,4.96-1.15,1.3-2.76,2.11-4.83,2.43,1.97.57,3.35,1.44,4.14,2.59.79,1.15,1.19,2.94,1.19,5.37v6.15h3.24v2.16h-5.52v-7.6c0-2.93-.69-4.98-2.08-6.14-1.39-1.16-3.85-1.74-7.38-1.74h-3.44v13.32h3.65v2.16h-9.51ZM321.37,753v-2.16h3.24v-27.5h-3.24v-2.18h20.61v7.83h-2.27v-5.65h-12.82v11.73h9.85v2.16h-9.85v13.62h12.82v-5.53h2.27v7.69h-20.61ZM264.74,723.33v15.16h4.74c2.95,0,5.13-.62,6.55-1.86,1.41-1.24,2.12-3.15,2.12-5.74s-.7-4.48-2.12-5.71c-1.41-1.23-3.6-1.85-6.56-1.85h-4.74ZM258.88,753v-2.16h3.59v-27.5h-3.59v-2.18h10.75c3.54,0,6.23.83,8.06,2.47,1.84,1.65,2.75,4.06,2.75,7.22s-.91,5.63-2.71,7.24c-1.81,1.62-4.51,2.43-8.11,2.43h-4.88v10.32h3.65v2.16h-9.51ZM198.88,750.84h3.28v2.16h-8.87v-2.16h3.28l8.28-13.66-8.13-13.84h-3.05v-2.18h9.03v2.18h-3.43l6.88,11.85,6.95-11.85h-3.8v-2.18h9.08v2.18h-3.05l-8.14,13.58,8.29,13.92h3.24v2.16h-8.87v-2.16h3.09l-7-11.9-7.06,11.9Z"/>
  <path class="st2" d="M320.07,658.74c0-5.83-1.3-11.52-5.02-16.13-3.26-4.03-7.41-6.14-12.6-6.14s-9.3,2.11-12.53,6.14c-3.7,4.62-4.99,10.31-4.99,16.14s1.29,11.49,4.98,16.09c3.23,4.03,7.36,6.13,12.54,6.13s9.36-2.09,12.62-6.13c3.71-4.6,5.01-10.27,5.01-16.09M288.33,579.28v17.7h29.05v4.88h-29.05v19.64h29.05v4.88h-34.13v-52.06h34.13v4.95h-29.05ZM351.15,616.83l16.79-42.5h7.09v52.06h-4.98v-44.29l-17.44,44.29h-2.7l-18.42-44.19v44.19h-4.94v-52.06h6.94l17.67,42.5ZM384.18,626.39v-52.06h5.33v52.06h-5.33ZM403.76,579.28v17.7h29.05v4.88h-29.05v19.64h29.05v4.88h-34.13v-52.07h34.13v4.95h-29.05ZM467.5,601.97l12.36,24.43h-5.75l-12.02-23.67h-12.78v-4.92h11.88c3.03,0,6.89-.38,9.37-2.3,2.2-1.71,2.87-4.3,2.87-6.99s-.74-5.18-2.94-6.89c-2.5-1.93-6.25-2.35-9.3-2.35h-14.15v47.11h-5.09v-52.07h18.68c4.52,0,9.66.69,13.35,3.52,3.39,2.59,4.71,6.34,4.71,10.53,0,3.44-.99,6.55-3.29,9.13-2.12,2.37-4.88,3.75-7.91,4.46ZM480.67,637.61h-15.93v-4.95h37.19v4.95h-15.93v47.11h-5.33v-47.11ZM293.82,633.33c2.73-1.22,5.63-1.79,8.62-1.79s5.94.57,8.71,1.8c2.74,1.23,5.13,3.01,7.16,5.23,2.35,2.62,4.06,5.65,5.22,8.97,1.24,3.6,1.77,7.39,1.77,11.19s-.53,7.6-1.77,11.22c-1.15,3.31-2.86,6.34-5.23,8.93-2.04,2.2-4.43,3.98-7.18,5.19-2.75,1.21-5.68,1.76-8.68,1.76s-5.92-.55-8.67-1.76c-2.74-1.22-5.12-3-7.16-5.2-2.34-2.62-4.07-5.66-5.23-8.97-1.26-3.59-1.79-7.37-1.79-11.17s.53-7.63,1.79-11.24c1.16-3.3,2.87-6.33,5.24-8.93,2.05-2.21,4.45-4,7.2-5.23ZM380.63,637.61v17.7h29.05v4.88h-29.05v19.64h29.05v4.88h-34.13v-52.07h34.13v4.95h-29.05ZM262.89,660.3l12.36,24.43h-5.75l-12.02-23.67h-12.78v-4.92h11.88c3.02,0,6.89-.38,9.37-2.3,2.2-1.71,2.87-4.3,2.87-6.99s-.74-5.18-2.94-6.89c-2.5-1.93-6.25-2.34-9.3-2.34h-14.15v47.11h-5.08v-52.07h18.68c4.52,0,9.66.69,13.35,3.52,3.4,2.59,4.71,6.34,4.71,10.53,0,3.44-.99,6.55-3.29,9.13-2.12,2.37-4.88,3.75-7.91,4.46ZM444.37,660.3l12.36,24.43h-5.75l-12.02-23.67h-12.78v-4.92h11.88c3.03,0,6.89-.38,9.37-2.3,2.21-1.71,2.87-4.31,2.87-6.99s-.74-5.18-2.94-6.89c-2.5-1.93-6.25-2.34-9.3-2.34h-14.15v47.11h-5.09v-52.07h18.68c4.52,0,9.66.69,13.35,3.52,3.39,2.59,4.71,6.34,4.71,10.53,0,3.44-.99,6.55-3.29,9.13-2.12,2.37-4.88,3.75-7.91,4.46ZM197.88,637.61v47.11h-5.09v-52.07h16.7c4.75,0,10.1.77,13.91,3.85,3.57,2.89,4.84,7.04,4.84,11.52s-1.31,8.32-4.59,11.3c-3.41,3.08-7.82,4.13-12.32,4.13h-11.19v-4.88h10.83c3.11,0,6.52-.55,8.94-2.67,2.26-1.99,2.99-4.82,2.99-7.74s-.74-5.84-3.05-7.85c-2.5-2.15-6.07-2.7-9.25-2.7h-12.72ZM336.02,637.61v47.11h-5.09v-52.07h16.7c4.75,0,10.1.77,13.91,3.85,3.57,2.89,4.84,7.04,4.84,11.52s-1.31,8.32-4.59,11.3c-3.41,3.08-7.82,4.13-12.32,4.13h-11.19v-4.88h10.83c3.11,0,6.52-.55,8.94-2.67,2.26-1.99,2.99-4.82,2.99-7.74s-.74-5.84-3.05-7.85c-2.5-2.15-6.07-2.7-9.25-2.7h-12.72ZM197.88,579.28v47.11h-5.08v-52.06h16.7c4.75,0,10.1.77,13.91,3.85,3.56,2.89,4.84,7.04,4.84,11.52s-1.31,8.32-4.59,11.3c-3.41,3.08-7.82,4.13-12.32,4.13h-11.19v-4.88h10.83c3.11,0,6.52-.55,8.94-2.67,2.26-1.99,2.99-4.82,2.99-7.74s-.74-5.84-3.05-7.85c-2.5-2.15-6.07-2.7-9.25-2.7h-12.72ZM531.99,660.01v24.72h-5.12v-24.72l-17.1-27.35h5.84l13.9,22.37,13.93-22.37h5.63l-17.08,27.35ZM262.88,601.97l12.36,24.42h-5.75l-12.02-23.67h-12.78v-4.92h11.88c3.03,0,6.89-.38,9.37-2.3,2.2-1.71,2.87-4.3,2.87-6.99s-.74-5.18-2.94-6.89c-2.5-1.93-6.25-2.34-9.3-2.34h-14.15v47.11h-5.09v-52.06h18.68c4.52,0,9.66.69,13.35,3.52,3.4,2.59,4.71,6.33,4.71,10.53,0,3.44-.99,6.55-3.29,9.13-2.12,2.37-4.88,3.75-7.91,4.46Z"/>
  <path class="st1" d="M193.64,701.6h66.09v2.14h-66.09v-2.14ZM465.17,701.6h66.09v2.14h-66.09v-2.14Z"/>
</svg>